C:\Users\u0088756\Documents\FWO\Software\ExoSim\PredSim_2D\Polynomials\Gait18_shorterHamstring\dummy_motion_mtp.mot
nRows=40
nColumns=13

name C:\Users\u0088756\Documents\FWO\Software\ExoSim\PredSim_2D\Polynomials\Gait18_shorterHamstring\dummy_motion_mtp.mot
datacolumns 13
datarows 40
range 37.5100000000 37.9000000000
endheader
time	pelvis_tilt	pelvis_tx	pelvis_ty	hip_flexion_r	knee_angle_r	ankle_angle_r	mtp_angle_r	hip_flexion_l	knee_angle_l	ankle_angle_l	mtp_angle_l	lumbar_extension
       37.5100000000	        0.0000000000	        0.0000000000	        0.0000000000	       13.3255838614	      -85.7285987542	      -15.6756593838	        0.0000000000	       13.3255838614	      -85.7285987542	      -15.6756593838	        0.0000000000	        0.0000000000	
       37.5200000000	        0.0000000000	        0.0000000000	        0.0000000000	      -39.8686512695	      -55.3501527399	       16.0688997633	        0.0000000000	      -39.8686512695	      -55.3501527399	       16.0688997633	        0.0000000000	        0.0000000000	
       37.5300000000	        0.0000000000	        0.0000000000	        0.0000000000	        4.1020609022	      -56.6698192108	       -5.9756048304	        0.0000000000	        4.1020609022	      -56.6698192108	       -5.9756048304	        0.0000000000	        0.0000000000	
       37.5400000000	        0.0000000000	        0.0000000000	        0.0000000000	       -0.9147419319	      -57.1006473712	       10.4334787643	        0.0000000000	       -0.9147419319	      -57.1006473712	       10.4334787643	        0.0000000000	        0.0000000000	
       37.5500000000	        0.0000000000	        0.0000000000	        0.0000000000	       20.6362842372	      -12.1743306515	      -20.3395252782	        0.0000000000	       20.6362842372	      -12.1743306515	      -20.3395252782	        0.0000000000	        0.0000000000	
       37.5600000000	        0.0000000000	        0.0000000000	        0.0000000000	       -2.0117178377	      -77.9318731381	        3.1280978192	        0.0000000000	       -2.0117178377	      -77.9318731381	        3.1280978192	        0.0000000000	        0.0000000000	
       37.5700000000	        0.0000000000	        0.0000000000	        0.0000000000	      -38.7251352348	      -45.3224664935	       15.8134695194	        0.0000000000	      -38.7251352348	      -45.3224664935	       15.8134695194	        0.0000000000	        0.0000000000	
       37.5800000000	        0.0000000000	        0.0000000000	        0.0000000000	      -45.8021930294	      -41.4248963466	       17.5017197298	        0.0000000000	      -45.8021930294	      -41.4248963466	       17.5017197298	        0.0000000000	        0.0000000000	
       37.5900000000	        0.0000000000	        0.0000000000	        0.0000000000	      -18.2754843457	      -35.3303015320	       -7.1835583862	        0.0000000000	      -18.2754843457	      -35.3303015320	       -7.1835583862	        0.0000000000	        0.0000000000	
       37.6000000000	        0.0000000000	        0.0000000000	        0.0000000000	      -17.3645374890	       -6.3445715289	        1.9247614708	        0.0000000000	      -17.3645374890	       -6.3445715289	        1.9247614708	        0.0000000000	        0.0000000000	
       37.6100000000	        0.0000000000	        0.0000000000	        0.0000000000	      -33.9707683419	      -29.9833912551	       -3.5527732630	        0.0000000000	      -33.9707683419	      -29.9833912551	       -3.5527732630	        0.0000000000	        0.0000000000	
       37.6200000000	        0.0000000000	        0.0000000000	        0.0000000000	       39.1065803706	      -63.9062666819	       -1.8052019819	        0.0000000000	       39.1065803706	      -63.9062666819	       -1.8052019819	        0.0000000000	        0.0000000000	
       37.6300000000	        0.0000000000	        0.0000000000	        0.0000000000	      -17.5542811511	       -8.8710720354	       -1.9552466510	        0.0000000000	      -17.5542811511	       -8.8710720354	       -1.9552466510	        0.0000000000	        0.0000000000	
       37.6400000000	        0.0000000000	        0.0000000000	        0.0000000000	      -13.1228715848	      -49.9055830961	      -25.0811015530	        0.0000000000	      -13.1228715848	      -49.9055830961	      -25.0811015530	        0.0000000000	        0.0000000000	
       37.6500000000	        0.0000000000	        0.0000000000	        0.0000000000	       43.6130520130	      -40.1250715009	        9.1097811697	        0.0000000000	       43.6130520130	      -40.1250715009	        9.1097811697	        0.0000000000	        0.0000000000	
       37.6600000000	        0.0000000000	        0.0000000000	        0.0000000000	       33.0955907543	      -13.6627548783	        0.1468962199	        0.0000000000	       33.0955907543	      -13.6627548783	        0.1468962199	        0.0000000000	        0.0000000000	
       37.6700000000	        0.0000000000	        0.0000000000	        0.0000000000	      -39.9658473444	      -67.4441912328	      -12.9204944582	        0.0000000000	      -39.9658473444	      -67.4441912328	      -12.9204944582	        0.0000000000	        0.0000000000	
       37.6800000000	        0.0000000000	        0.0000000000	        0.0000000000	       32.8695752127	      -66.6491736948	       11.8406646157	        0.0000000000	       32.8695752127	      -66.6491736948	       11.8406646157	        0.0000000000	        0.0000000000	
       37.6900000000	        0.0000000000	        0.0000000000	        0.0000000000	      -10.1231251456	      -69.1972472592	       24.4462285646	        0.0000000000	      -10.1231251456	      -69.1972472592	       24.4462285646	        0.0000000000	        0.0000000000	
       37.7000000000	        0.0000000000	        0.0000000000	        0.0000000000	      -40.1007977768	      -77.8679146771	        0.1612117199	        0.0000000000	      -40.1007977768	      -77.8679146771	        0.1612117199	        0.0000000000	        0.0000000000	
       37.7100000000	        0.0000000000	        0.0000000000	        0.0000000000	       -5.6969009341	      -55.1281901925	       10.4892376016	        0.0000000000	       -5.6969009341	      -55.1281901925	       10.4892376016	        0.0000000000	        0.0000000000	
       37.7200000000	        0.0000000000	        0.0000000000	        0.0000000000	      -12.1559344342	      -28.4214058250	      -26.0416737636	        0.0000000000	      -12.1559344342	      -28.4214058250	      -26.0416737636	        0.0000000000	        0.0000000000	
       37.7300000000	        0.0000000000	        0.0000000000	        0.0000000000	      -10.6949539402	      -72.0236653174	       10.1793781619	        0.0000000000	      -10.6949539402	      -72.0236653174	       10.1793781619	        0.0000000000	        0.0000000000	
       37.7400000000	        0.0000000000	        0.0000000000	        0.0000000000	      -34.6672395037	      -54.3580720830	        2.7536004918	        0.0000000000	      -34.6672395037	      -54.3580720830	        2.7536004918	        0.0000000000	        0.0000000000	
       37.7500000000	        0.0000000000	        0.0000000000	        0.0000000000	       34.7384609261	       -6.1664606401	      -26.3134869208	        0.0000000000	       34.7384609261	       -6.1664606401	      -26.3134869208	        0.0000000000	        0.0000000000	
       37.7600000000	        0.0000000000	        0.0000000000	        0.0000000000	        1.3088896269	      -88.1302675406	      -11.2742100521	        0.0000000000	        1.3088896269	      -88.1302675406	      -11.2742100521	        0.0000000000	        0.0000000000	
       37.7700000000	        0.0000000000	        0.0000000000	        0.0000000000	       -0.0675690132	      -25.1019689810	       26.1412400647	        0.0000000000	       -0.0675690132	      -25.1019689810	       26.1412400647	        0.0000000000	        0.0000000000	
       37.7800000000	        0.0000000000	        0.0000000000	        0.0000000000	       13.6980298845	       -5.7220451432	      -24.9665055607	        0.0000000000	       13.6980298845	       -5.7220451432	      -24.9665055607	        0.0000000000	        0.0000000000	
       37.7900000000	        0.0000000000	        0.0000000000	        0.0000000000	      -19.5289435621	      -85.2359651915	       11.5624623555	        0.0000000000	      -19.5289435621	      -85.2359651915	       11.5624623555	        0.0000000000	        0.0000000000	
       37.8000000000	        0.0000000000	        0.0000000000	        0.0000000000	      -23.5963987088	      -87.1210542845	       -9.3988931977	        0.0000000000	      -23.5963987088	      -87.1210542845	       -9.3988931977	        0.0000000000	        0.0000000000	
       37.8100000000	        0.0000000000	        0.0000000000	        0.0000000000	      -23.9656888379	      -58.7347044409	      -21.2008995289	        0.0000000000	      -23.9656888379	      -58.7347044409	      -21.2008995289	        0.0000000000	        0.0000000000	
       37.8200000000	        0.0000000000	        0.0000000000	        0.0000000000	      -24.9792080522	      -72.9703265430	       21.7795831602	        0.0000000000	      -24.9792080522	      -72.9703265430	       21.7795831602	        0.0000000000	        0.0000000000	
       37.8300000000	        0.0000000000	        0.0000000000	        0.0000000000	       15.9938379946	      -22.8155413365	      -13.9920899787	        0.0000000000	       15.9938379946	      -22.8155413365	      -13.9920899787	        0.0000000000	        0.0000000000	
       37.8400000000	        0.0000000000	        0.0000000000	        0.0000000000	      -29.0296994779	      -73.2243250818	       25.6061664691	        0.0000000000	      -29.0296994779	      -73.2243250818	       25.6061664691	        0.0000000000	        0.0000000000	
       37.8500000000	        0.0000000000	        0.0000000000	        0.0000000000	       28.3651368442	      -29.8210366638	       -3.8211134862	        0.0000000000	       28.3651368442	      -29.8210366638	       -3.8211134862	        0.0000000000	        0.0000000000	
       37.8600000000	        0.0000000000	        0.0000000000	        0.0000000000	       28.7565648932	      -65.7205460902	      -19.2105859921	        0.0000000000	       28.7565648932	      -65.7205460902	      -19.2105859921	        0.0000000000	        0.0000000000	
       37.8700000000	        0.0000000000	        0.0000000000	        0.0000000000	       -6.7820452489	      -20.6883471683	      -20.0654927954	        0.0000000000	       -6.7820452489	      -20.6883471683	      -20.0654927954	        0.0000000000	        0.0000000000	
       37.8800000000	        0.0000000000	        0.0000000000	        0.0000000000	      -43.2552861938	      -56.3425376986	      -26.0318597127	        0.0000000000	      -43.2552861938	      -56.3425376986	      -26.0318597127	        0.0000000000	        0.0000000000	
       37.8900000000	        0.0000000000	        0.0000000000	        0.0000000000	       16.6730411262	      -34.5373079665	       -7.4597521904	        0.0000000000	       16.6730411262	      -34.5373079665	       -7.4597521904	        0.0000000000	        0.0000000000	
       37.9000000000	        0.0000000000	        0.0000000000	        0.0000000000	      -11.1171147116	      -85.3841467585	       11.7813998430	        0.0000000000	      -11.1171147116	      -85.3841467585	       11.7813998430	        0.0000000000	        0.0000000000	
